# AST/ASF file generated using VICON BodyLanguage
# -----------------------------------------------
:version 1.10
:name VICON
:units
  mass 1.0
  length 0.45
  angle deg
:documentation
   .ast/.asf automatically generated from VICON data using
   VICON BodyBuilder and BodyLanguage model FoxedUp or BRILLIANT.MOD
:root
   order TX TY TZ RX RY RZ
   axis XYZ
   position 0 0 0  
   orientation 0 0 0 
:bonedata
  begin
     id 1 
     name lhipjoint
     direction 0.535335 -0.74333 0.401095 
     length 2.04549 
     axis 0 0 0  XYZ
  end
  begin
     id 2 
     name lfemur
     direction 0.34202 -0.939693 0  
     length 6.95643  
     axis 0 0 20  XYZ
    dof rx ry rz
    limits (-160.0 20.0)
           (-70.0 70.0)
           (-60.0 70.0)
  end
  begin
     id 3 
     name ltibia
     direction 0.34192 -0.939729 0   
     length 5.55969   
     axis 0 0 20   XYZ
    dof rx
    limits (-10.0 170.0)
  end
  begin
     id 4 
     name lfoot
     direction 0.216943 -0.596046 0.773088   
     length 2.27918   
     axis -90 7.62852e-016 20   XYZ
    dof rx rz
    limits (-45.0 90.0)
           (-70.0 20.0)
  end
  begin
     id 5 
     name ltoes
     direction 1.53519e-011 -4.21748e-011 1   
     length 1.05562   
     axis -90 7.62852e-016 20   XYZ
    dof rx
    limits (-90.0 20.0)
  end
  begin
     id 6 
     name rhipjoint
     direction -0.576368 -0.719173 0.38806   
     length 2.1142  
     axis 0 0 0  XYZ 
  end
  begin
     id 7 
     name rfemur
     direction -0.34202 -0.939693 0   
     length 7.07928   
     axis 0 0 -20   XYZ
    dof rx ry rz
    limits (-160.0 20.0)
           (-70.0 70.0)
           (-70.0 60.0)
  end
  begin
     id 8 
     name rtibia
     direction -0.34202 -0.939693 0   
     length 5.79974   
     axis 0 0 -20   XYZ
    dof rx
    limits (-10.0 170.0)
 end
 begin
     id 9 
     name rfoot
     direction -0.189288 -0.520065 0.832888   
     length 2.42173  
     axis -90 -7.62852e-016 -20   XYZ
    dof rx rz
    limits (-45.0 90.0)
           (-20.0 70.0)
  end
  begin
     id 10 
     name rtoes
     direction -1.53574e-011 -4.21658e-011 1   
     length 1.14469   
     axis -90 -7.62852e-016 -20   XYZ
    dof rx
    limits (-90.0 20.0)
  end
  begin
     id 11 
     name lowerback
     direction -0.00135702 0.993803 0.111144   
     length 1.91308   
     axis 0 0 0   XYZ
    dof rx ry rz
    limits (-20.0 45.0)
           (-30.0 30.0)
           (-30.0 30.0)
  end
  begin
     id 12 
     name upperback
     direction -0.0056745 0.999813 0.0184631   
     length 1.9212   
     axis 0 0 0   XYZ
    dof rx ry rz
    limits (-20.0 45.0)
           (-30.0 30.0)
           (-30.0 30.0)
  end
  begin
     id 13 
     name thorax
     direction -0.00733434 0.999426 -0.0330788   
     length 1.94196   
     axis 0 0 0   XYZ
    dof rx ry rz
    limits (-20.0 45.0)
           (-30.0 30.0)
           (-30.0 30.0)
  end
  begin
     id 14 
     name lowerneck
     direction 0.0563074 0.996944 -0.0541571   
     length 2.34257   
     axis 0 0 0   XYZ
    dof rx ry rz
    limits (-20.0 45.0)
           (-30.0 30.0)
           (-30.0 30.0)
  end
  begin
     id 15 
     name upperneck
     direction -0.0544519 0.976166 -0.210085   
     length 2.32506   
     axis 0 0 0   XYZ
    dof rx ry rz
    limits (-20.0 45.0)
           (-30.0 30.0)
           (-30.0 30.0)
  end
  begin
     id 16
     name head
     direction -0.0226035 0.997615 -0.0652205  
     length 2.3648  
     axis 0 0 0   XYZ
    dof rx ry rz
    limits (-20.0 45.0)
           (-30.0 30.0)
           (-30.0 30.0)
  end
  begin
     id 17 
     name lclavicle
     direction 0.92109 0.381297 -0.0787716  
     length 4.0487  
     axis 0 0 0   XYZ
    dof ry rz
    limits (-20.0 10.0)
           (0.0 20.0)
  end
  begin
     id 18 
     name lhumerus
     direction 1 -4.48986e-011 3.56724e-027   
     length 4.94991   
     axis 180 -30 -90   XYZ
    dof rx ry rz
    limits (-60.0 90.0)
           (-90.0 90.0)
           (-90.0 90.0)
  end
  begin
     id 19
     name lradius
     direction 1 -4.48981e-011 8.62147e-027   
     length 2.7606   
     axis 180 -30 -90   XYZ
    dof rx
    limits (-10.0 170.0)
  end
  begin
     id 20
     name lwrist
     direction 1 -4.48989e-011 1.59799e-026   
     length 1.3803   
     axis -1.17785e-014 90 90   XYZ
    dof ry
    limits (-180.0 0.0)
 end
  begin
     id 21 
     name lhand
     direction 1 -4.48896e-011 3.19599e-026   
     length 0.843936   
     axis -2.03931e-014 90 90   XYZ
    dof rx rz
    limits (-90.0 90.0)
           (-45.0 45.0)
  end
  begin
     id 22 
     name lfingers
     direction 1 -4.48887e-011 6.39197e-026   
     length 0.680403   
     axis -4.07862e-014 90 90   XYZ
    dof rx
    limits (0.0 90.0)
  end
  begin
     id 23
     name lthumb
     direction 0.707107 -6.348e-011 0.707107   
     length 0.976926   
     axis -90 45 2.85299e-015   XYZ
    dof rx rz
    limits (-45.0 45.0)
           (-45.0 45.0)
  end
  begin
     id 24 
     name rclavicle
     direction -0.951104 0.307692 -0.026953   
     length 4.21801  
     axis 0 0 0   XYZ 
    dof ry rz
    limits (-10.0 20.0)
           (-20.0 0.0)
  end
  begin
     id 25 
     name rhumerus
     direction -1 -4.4896e-011 -1.8171e-018  
     length 4.32982   
     axis 180 30 90   XYZ
    dof rx ry rz
    limits (-90.0 60.0)
           (-90.0 90.0)
           (-90.0 90.0)
  end
  begin
     id 26 
     name rradius
     direction -1 -4.48959e-011 8.25165e-027   
     length 3.20057   
     axis 180 30 90   XYZ
    dof rx
    limits (-10.0 170.0)
  end
  begin
     id 27 
     name rwrist
     direction -1 -4.48997e-011 1.59799e-026   
     length 1.60029   
     axis -1.17785e-014 -90 -90   XYZ
    dof ry
    limits (-180.0 0.0)
  end
  begin
     id 28
     name rhand
     direction -1 -4.49023e-011 3.19599e-026   
     length 0.960433   
     axis -2.03931e-014 -90 -90   XYZ
    dof rx rz
    limits (-90.0 90.0)
           (-45.0 45.0)
  end
  begin
     id 29
     name rfingers
     direction -1 -4.48802e-011 6.39197e-026   
     length 0.774326   
     axis -4.07862e-014 -90 -90   XYZ
    dof rx
    limits (0.0 90.0)
  end
  begin
     id 30
     name rthumb
     direction -0.707107 -6.34876e-011 0.707107   
     length 1.11178   
     axis -90 -45 -2.85299e-015   XYZ
    dof rx rz
    limits (-45.0 45.0)
           (-45.0 45.0)
  end
:hierarchy
  begin
    root lhipjoint rhipjoint lowerback
    lhipjoint lfemur
    lfemur ltibia
    ltibia lfoot
    lfoot ltoes
    rhipjoint rfemur
    rfemur rtibia
    rtibia rfoot
    rfoot rtoes
    lowerback upperback
    upperback thorax
    thorax lowerneck lclavicle rclavicle
    lowerneck upperneck
    upperneck head
    lclavicle lhumerus
    lhumerus lradius
    lradius lwrist
    lwrist lhand lthumb
    lhand lfingers
    rclavicle rhumerus
    rhumerus rradius
    rradius rwrist
    rwrist rhand rthumb
    rhand rfingers
end

#!OML:ASF C:\KaitlinTest1\Natural Motions\Nikki\Session 2\Nikki.ASF
:FULLY-SPECIFIED
:DEGREES
434
root -11.7926 16.4602 4.02065 79.82 91.4544 73.4064
lowerback -10.6904 -2.29002 0.897618
upperback -4.46999 -2.95699 -0.151774
thorax 1.27942 -1.41664 -0.999424
lowerneck -8.96021 -11.171 -9.37721
upperneck 5.16976 42.2643 5.43946
head 167.597 59.46 -37.7235
rclavicle -2.28851e-014 -7.7526e-015
rhumerus -52.1501 -34.0114 -63.5975
rradius 16.7357
rwrist 24.1138
rhand -36.496 0.681649
rfingers 7.12502
rthumb -9.58842 -29.0802
lclavicle -2.28851e-014 -7.7526e-015
lhumerus -50.334 26.3901 70.2455
lradius 20.3675
lwrist -30.9229
lhand -32.7276 3.70228
lfingers 7.12502
lthumb -5.95119 33.5987
rfemur -4.86536 -19.2729 20.4958
rtibia 16.702
rfoot -14.3879 8.37405
rtoes 1.35174e-014
lfemur -8.35963 16.5279 -16.4327
ltibia 20.5268
lfoot -10.085 -18.8592
ltoes 1.90833e-014
435
root -11.804 16.4612 4.02218 81.2906 91.4551 74.8689
lowerback -10.5956 -2.26727 0.885989
upperback -4.48196 -2.92516 -0.1691
thorax 1.21576 -1.40156 -1.00286
lowerneck -8.9053 -11.1729 -9.38648
upperneck 5.19241 42.2873 5.45905
head 167.669 59.3967 -37.6659
rclavicle 2.11954e-014 7.15625e-015
rhumerus -51.9014 -33.7265 -64.2059
rradius 17.0106
rwrist 23.2712
rhand -36.5219 0.842529
rfingers 7.12502
rthumb -9.61334 -28.9181
lclavicle 2.11954e-014 7.15625e-015
lhumerus -50.0278 26.0181 70.6383
lradius 20.5352
lwrist -31.2406
lhand -33.4928 3.72703
lfingers 7.12502
lthumb -6.69 33.6013
rfemur -4.94095 -19.265 20.5375
rtibia 16.729
rfoot -14.3702 8.40107
rtoes -2.38542e-014
lfemur -8.41546 16.5793 -16.429
ltibia 20.5013
lfoot -10.0388 -18.871
ltoes -1.59028e-015
436
root -11.8184 16.4653 4.02545 80.7778 91.4515 74.2838
lowerback -10.5238 -2.25393 0.850097
upperback -4.52068 -2.90186 -0.189786
thorax 1.13772 -1.39 -0.997487
lowerneck -8.84053 -11.195 -9.3799
upperneck 5.20706 42.2492 5.46535
head 167.631 59.4333 -37.6827
rclavicle 1.963e-014 1.05356e-014
rhumerus -51.5099 -33.226 -65.1289
rradius 17.3389
rwrist 22.0829
rhand -36.6495 0.653099
rfingers 7.12502
rthumb -9.73651 -29.1018
lclavicle 1.963e-014 1.05356e-014
lhumerus -49.6979 25.6382 71.0305
lradius 20.6283
lwrist -31.5398
lhand -34.3125 3.63477
lfingers 7.12502
lthumb -7.48118 33.4825
rfemur -5.11197 -19.2726 20.5964
rtibia 16.7667
rfoot -14.316 8.40466
rtoes -3.49861e-014
lfemur -8.56157 16.663 -16.46
ltibia 20.473
lfoot -9.95063 -18.9644
ltoes -4.77083e-014
437
root -11.8249 16.4647 4.02482 84.5134 91.4251 78.0444
lowerback -10.536 -2.17863 0.899007
upperback -4.47754 -2.80796 -0.237766
thorax 1.18641 -1.34439 -1.06557
lowerneck -8.79775 -11.2216 -9.38863
upperneck 5.20577 42.2025 5.46674
head 167.667 59.4207 -37.6441
rclavicle -1.21756e-014 -5.96354e-015
rhumerus -50.9987 -32.5872 -66.203
rradius 17.6472
rwrist 20.7216
rhand -36.7106 0.635561
rfingers 7.12502
rthumb -9.79546 -29.1166
lclavicle -1.21756e-014 -5.96354e-015
lhumerus -49.2805 25.3268 71.398
lradius 20.6956
lwrist -31.985
lhand -34.8662 3.80733
lfingers 7.12502
lthumb -8.01567 33.6353
rfemur -5.12572 -19.2726 20.5757
rtibia 16.7608
rfoot -14.289 8.51877
rtoes 0
lfemur -8.55491 16.7414 -16.4735
ltibia 20.4836
lfoot -9.9409 -18.9528
ltoes 5.56597e-014
438
root -11.8318 16.4652 4.02534 87.7056 91.4088 81.2579
lowerback -10.4781 -2.12823 0.893281
upperback -4.47404 -2.74082 -0.253058
thorax 1.15962 -1.31153 -1.06846
lowerneck -8.71883 -11.229 -9.41282
upperneck 5.22716 42.1937 5.47766
head 167.706 59.4108 -37.6058
rclavicle 1.6027e-014 2.78299e-015
rhumerus -50.281 -31.5221 -67.783
rradius 18.073
rwrist 18.3044
rhand -36.9238 0.503694
rfingers 7.12502
rthumb -10.0011 -29.2387
lclavicle 1.6027e-014 2.78299e-015
lhumerus -48.8496 24.8831 71.9268
lradius 20.7697
lwrist -31.7946
lhand -35.2773 3.9996
lfingers 7.12502
lthumb -8.41239 33.8121
rfemur -5.15118 -19.3969 20.5582
rtibia 16.7785
rfoot -14.3191 8.7198
rtoes 3.65764e-014
lfemur -8.54186 16.8298 -16.4836
ltibia 20.4771
lfoot -9.93419 -18.9649
ltoes 3.97569e-014
439
root -11.838 16.4663 4.02407 91.029 91.4259 84.5713
lowerback -10.4596 -2.0761 0.951897
upperback -4.49726 -2.6764 -0.252297
thorax 1.1242 -1.28009 -1.0921
lowerneck -8.62433 -11.2494 -9.46666
upperneck 5.26409 42.1939 5.45756
head 167.565 59.411 -37.6747
rclavicle 1.96797e-014 3.77691e-015
rhumerus -50.2045 -31.4092 -67.9504
rradius 18.2059
rwrist 18.7092
rhand -36.6087 0.384668
rfingers 7.12502
rthumb -9.6971 -29.3721
lclavicle 1.96797e-014 3.77691e-015
lhumerus -48.5623 24.68 72.2082
lradius 20.8138
lwrist -31.93
lhand -35.763 3.91731
lfingers 7.12502
lthumb -8.88111 33.7104
rfemur -5.17938 -19.5458 20.5703
rtibia 16.7427
rfoot -14.2992 8.9624
rtoes 1.59028e-015
lfemur -8.56095 16.9032 -16.4719
ltibia 20.4907
lfoot -9.94726 -18.9259
ltoes 2.06736e-014
440
root -11.8497 16.4671 4.02532 91.8917 91.4084 85.4177
lowerback -10.3853 -2.05746 0.921405
upperback -4.51533 -2.64783 -0.269454
thorax 1.06628 -1.26616 -1.0863
lowerneck -8.54879 -11.23 -9.51558
upperneck 5.3014 42.2618 5.48412
head 167.692 59.3474 -37.5908
rclavicle 1.84124e-014 7.95139e-016
rhumerus -49.6158 -30.6256 -69.1391
rradius 18.4853
rwrist 17.1304
rhand -36.6641 0.240078
rfingers 7.12502
rthumb -9.75056 -29.5142
lclavicle 1.84124e-014 7.95139e-016
lhumerus -48.1712 24.3444 72.6144
lradius 20.9419
lwrist -31.844
lhand -35.8017 4.26548
lfingers 7.12502
lthumb -8.91848 34.057
rfemur -5.22908 -19.6238 20.5794
rtibia 16.6877
rfoot -14.2835 9.07011
rtoes 6.36111e-015
lfemur -8.62796 16.8671 -16.5082
ltibia 20.5085
lfoot -9.94652 -18.8415
ltoes -2.38542e-014
441
root -11.8634 16.4714 4.0262 91.6322 91.4888 85.1295
lowerback -10.3109 -2.03432 0.998128
upperback -4.5166 -2.62449 -0.274251
thorax 1.02109 -1.25614 -1.12878
lowerneck -8.51434 -11.2579 -9.49584
upperneck 5.30048 42.1981 5.47925
head 167.611 59.4158 -37.638
rclavicle 1.95306e-014 5.1684e-015
rhumerus -49.4203 -30.6474 -69.3455
rradius 18.4749
rwrist 17.6869
rhand -36.3132 0.500373
rfingers 7.12502
rthumb -9.412 -29.2695
lclavicle 1.95306e-014 5.1684e-015
lhumerus -47.7109 24.0579 72.9937
lradius 21.0421
lwrist -31.4513
lhand -35.8732 4.31374
lfingers 7.12502
lthumb -8.9874 34.1023
rfemur -5.32825 -19.954 20.691
rtibia 16.6193
rfoot -14.1787 9.42996
rtoes 7.15625e-015
lfemur -8.73052 16.7992 -16.4445
ltibia 20.5155
lfoot -9.89895 -18.7598
ltoes 2.8625e-014
442
root -11.8724 16.4714 4.02697 92.8217 91.5614 86.328
lowerback -10.2341 -2.00905 1.06629
upperback -4.54626 -2.59636 -0.26183
thorax 0.946547 -1.24336 -1.14749
lowerneck -8.38164 -11.2276 -9.56136
upperneck 5.34407 42.2318 5.50228
head 167.733 59.3953 -37.5406
rclavicle -1.90336e-014 -3.97569e-015
rhumerus -49.0981 -30.2434 -69.925
rradius 18.52
rwrist 17.3581
rhand -36.1521 0.692119
rfingers 7.12502
rthumb -9.25654 -29.0847
lclavicle -1.90336e-014 -3.97569e-015
lhumerus -47.3801 23.9554 73.1469
lradius 21.0116
lwrist -31.587
lhand -35.7564 4.4086
lfingers 7.12502
lthumb -8.8747 34.202
rfemur -5.32256 -19.8808 20.7814
rtibia 16.5501
rfoot -14.1214 9.3957
rtoes 0
lfemur -8.74027 16.6604 -16.371
ltibia 20.5147
lfoot -9.86611 -18.6053
ltoes 3.33958e-014
443
root -11.8652 16.4707 4.02282 100.403 91.4304 93.969
lowerback -10.433 -1.92941 1.02582
upperback -4.45112 -2.49008 -0.32897
thorax 1.15543 -1.18927 -1.19228
lowerneck -8.36159 -11.2389 -9.59598
upperneck 5.35153 42.2257 5.48
head 167.636 59.415 -37.5971
rclavicle -1.47598e-014 -1.78906e-015
rhumerus -48.6754 -30.0285 -70.4166
rradius 18.5112
rwrist 17.4782
rhand -35.8104 0.475297
rfingers 7.12502
rthumb -8.92688 -29.3159
lclavicle -1.47598e-014 -1.78906e-015
lhumerus -46.9555 23.87 73.3512
lradius 21.0458
lwrist -31.6851
lhand -35.4868 4.37112
lfingers 7.12502
lthumb -8.6146 34.1754
rfemur -5.18545 -20.1639 20.5134
rtibia 16.4834
rfoot -14.1745 9.87591
rtoes -2.38542e-015
lfemur -8.55877 16.6145 -16.5378
ltibia 20.4986
lfoot -9.97249 -18.3673
ltoes 6.36111e-015
444
root -11.8776 16.473 4.02513 100.005 91.4465 93.5259
lowerback -10.3849 -1.92381 1.01029
upperback -4.46991 -2.48068 -0.316437
thorax 1.11122 -1.1846 -1.16743
lowerneck -8.32959 -11.3063 -9.58246
upperneck 5.33009 42.0416 5.39948
head 167.172 59.6367 -37.8692
rclavicle 3.36443e-014 2.38542e-015
rhumerus -47.4282 -27.4768 -72.9463
rradius 18.6914
rwrist 14.6531
rhand -35.7756 0.144714
rfingers 7.12502
rthumb -8.89329 -29.6479
lclavicle 3.36443e-014 2.38542e-015
lhumerus -46.5819 23.8015 73.561
lradius 21.1342
lwrist -31.7415
lhand -35.1923 4.46696
lfingers 7.12502
lthumb -8.33041 34.2827
rfemur -5.25854 -19.8916 20.5909
rtibia 16.4594
rfoot -14.082 9.60321
rtoes 3.81667e-014
lfemur -8.66305 16.4609 -16.5358
ltibia 20.4955
lfoot -9.92265 -18.2117
ltoes 2.8625e-014
445
root -11.8862 16.4739 4.02655 100.91 91.4066 94.433
lowerback -10.3476 -1.90591 0.967285
upperback -4.47532 -2.4522 -0.340905
thorax 1.08685 -1.17038 -1.16403
lowerneck -8.24219 -11.2657 -9.65522
upperneck 5.35321 42.077 5.42353
head 167.37 59.6408 -37.7393
rclavicle 5.06901e-015 7.15625e-015
rhumerus -47.0103 -27.0757 -73.5162
rradius 18.614
rwrist 14.4663
rhand -35.6501 0.217902
rfingers 7.12502
rthumb -8.77211 -29.5798
lclavicle 5.06901e-015 7.15625e-015
lhumerus -46.1511 23.4764 73.9401
lradius 21.1808
lwrist -31.1596
lhand -35.0148 4.13292
lfingers 7.12502
lthumb -8.15909 33.9554
rfemur -5.30092 -19.8372 20.5585
rtibia 16.476
rfoot -14.0579 9.57929
rtoes 7.95139e-015
lfemur -8.66825 16.2859 -16.5936
ltibia 20.4577
lfoot -9.863 -18.0136
ltoes -2.22639e-014
446
root -11.8939 16.4724 4.02674 101.798 91.4281 95.363
lowerback -10.249 -1.894 0.991968
upperback -4.49626 -2.4382 -0.335991
thorax 1.01081 -1.16442 -1.16727
lowerneck -8.12638 -11.2481 -9.71786
upperneck 5.36979 42.0214 5.40493
head 167.325 59.7311 -37.7382
rclavicle 1.03368e-014 7.55382e-015
rhumerus -46.7733 -27.0381 -73.7125
rradius 18.5136
rwrist 15.0732
rhand -35.3704 0.267255
rfingers 7.12502
rthumb -8.50219 -29.5416
lclavicle 1.03368e-014 7.55382e-015
lhumerus -45.8359 23.0954 74.3849
lradius 21.4404
lwrist -30.549
lhand -34.6733 4.30236
lfingers 7.12502
lthumb -7.82943 34.1374
rfemur -5.29471 -19.7688 20.5764
rtibia 16.5021
rfoot -14.0172 9.54286
rtoes 1.82882e-014
lfemur -8.63414 16.1588 -16.5697
ltibia 20.4356
lfoot -9.86198 -17.8486
ltoes 5.40694e-014
